# xmcd CD database file
#
# Track frame offsets:
#	150
#	19777
#	36923
#	58142
#	71541
#	82515
#	101977
#	113673
#	129299
#	148963
#	162154
#	180060
#	200580
#	216906
#
# Disc length: 3144 seconds
#
# Revision: 1
# Processed by: cddbd v1.5.2PL0 Copyright (c) Steve Scherf et al.
# Submitted via: CDex 1.70beta2
#
DISCID=be0c460e
DTITLE=The Clear Wind Band - Shanghai Jazz 2
DYEAR=2007
DGENRE=Jazz
TTITLE0=Shan Hai Yao Bai - The Shanghai Shuffle
TTITLE1=Kan Zhe Wo - Look At Me
TTITLE2=Ni De Ta - Your Man
TTITLE3=Jia Zheng Jing - Pretender
TTITLE4=Nao Ren De Ye Yu - Rain Song
TTITLE5=Qie Ting Wo Shuo - Listen to Me
TTITLE6=Na Zou Jie Pai De Ren - That Rhythm Man
TTITLE7=Deng Zhe Ni Hui Lai - Waiting for You to Come Back
TTITLE8=Shang Hai LIL - Shanghai LIL
TTITLE9=Mei Gui Mei Gui Wo Ai Ni - Mei Gui Mei Gui Wo Ai Ni
TTITLE10=Zai Na Yao Yuan De Di Fang - Far in the Distance
TTITLE11=Lao Cha Guan - The Old Tea House
TTITLE12=Gei Wo Yi Ge Wen - Give Me A Kiss
TTITLE13=Qing Ren De Yan Lei - Lovers' Tears
EXTD=YEAR: 2007
EXTT0=
EXTT1=
EXTT2=
EXTT3=
EXTT4=
EXTT5=
EXTT6=
EXTT7=
EXTT8=
EXTT9=
EXTT10=
EXTT11=
EXTT12=
EXTT13=
PLAYORDER=
